<?xml version="1.0" encoding="utf-8"?>
<!-- Generator: Adobe Illustrator 24.1.3, SVG Export Plug-In . SVG Version: 6.00 Build 0)  -->
<svg version="1.1" id="Layer_1" xmlns="http://www.w3.org/2000/svg" xmlns:xlink="http://www.w3.org/1999/xlink" x="0px" y="0px"
	 viewBox="0 0 50 25" style="enable-background:new 0 0 50 25;" xml:space="preserve">
<style type="text/css">
	.st0{fill:#FFCC00;}
	.st1{fill:none;stroke:#FFFFFF;stroke-width:0.25;stroke-miterlimit:10;}
	.st2{fill:#F15A24;}
	.st3{fill:#754C24;}
	.st4{font-family:'BrushScriptMT';}
	.st5{font-size:2.5197px;}
</style>
<g>
	<rect class="st0" width="50" height="25"/>
</g>
<path d="M5.54,11.29l-0.19,0.34c0.22,0.03,0.42,0.07,0.6,0.12s0.34,0.11,0.49,0.17c0.15,0.06,0.28,0.13,0.39,0.19
	c0.4,0.25,0.59,0.59,0.59,1.04c0,0.27-0.08,0.54-0.25,0.79C7,14.2,6.79,14.43,6.52,14.64c-0.26,0.2-0.54,0.36-0.82,0.48
	c-0.28,0.12-0.53,0.17-0.76,0.17c-0.38,0-0.68-0.11-0.89-0.32c-0.21-0.21-0.32-0.5-0.32-0.87c0-0.25,0.07-0.56,0.2-0.9
	c0.13-0.35,0.33-0.78,0.6-1.29c-0.21-0.01-0.35-0.06-0.44-0.14c-0.09-0.08-0.13-0.19-0.13-0.32c0-0.09,0.02-0.15,0.05-0.2
	c0.03-0.05,0.08-0.08,0.13-0.1c0.05-0.02,0.16-0.05,0.32-0.08c0.16-0.03,0.36-0.07,0.6-0.11c0.27-0.5,0.52-0.88,0.73-1.14
	c0.22-0.25,0.45-0.4,0.7-0.44c0.02,0,0.04-0.01,0.07-0.01s0.04,0.01,0.04,0.03c0,0.02-0.03,0.08-0.08,0.18
	c-0.06,0.1-0.15,0.25-0.27,0.47c-0.13,0.21-0.28,0.47-0.45,0.76c0.47-0.09,0.86-0.2,1.16-0.32s0.53-0.27,0.68-0.44
	C7.79,9.88,7.86,9.7,7.86,9.49c0-0.25-0.08-0.43-0.24-0.55C7.45,8.83,7.21,8.77,6.87,8.77c-0.19,0-0.4,0.03-0.64,0.08
	C5.99,8.92,5.78,8.98,5.58,9.05C5.39,9.12,5.22,9.2,5.06,9.28C4.91,9.36,4.84,9.42,4.84,9.46c0,0.01,0.01,0.02,0.02,0.03
	c0.12,0.07,0.18,0.12,0.18,0.17c0,0.06-0.19,0.18-0.56,0.35c-0.38,0.17-0.63,0.26-0.76,0.26c-0.09,0-0.14-0.07-0.14-0.21
	c0-0.17,0.1-0.46,0.3-0.89c0.2-0.43,0.39-0.71,0.55-0.83c0.06-0.04,0.19-0.11,0.4-0.2s0.44-0.18,0.69-0.26
	C5.78,7.79,6.04,7.73,6.3,7.67c0.26-0.06,0.49-0.08,0.69-0.08c0.47,0,0.83,0.13,1.07,0.38c0.24,0.25,0.36,0.57,0.36,0.96
	c0,0.26-0.05,0.51-0.16,0.75c-0.11,0.24-0.28,0.47-0.51,0.68c-0.23,0.21-0.53,0.4-0.9,0.56S6.04,11.2,5.54,11.29z M5.14,12.02
	c-0.13,0.23-0.25,0.44-0.35,0.62c-0.1,0.18-0.17,0.32-0.22,0.43c-0.04,0.11-0.07,0.22-0.07,0.33c0,0.18,0.06,0.34,0.19,0.48
	s0.3,0.21,0.54,0.21c0.22,0,0.45-0.06,0.69-0.17c0.24-0.11,0.45-0.26,0.62-0.45c0.17-0.18,0.25-0.37,0.25-0.56
	c0-0.16-0.06-0.29-0.18-0.4c-0.12-0.11-0.31-0.2-0.56-0.28C5.79,12.16,5.49,12.08,5.14,12.02z"/>
<path d="M10.57,9.32c0.07-0.03,0.14-0.05,0.21-0.08c0.07-0.03,0.14-0.05,0.21-0.07c0.07-0.02,0.14-0.03,0.21-0.03
	c0.15,0,0.27,0.05,0.37,0.15s0.18,0.23,0.23,0.4c0.05,0.17,0.08,0.35,0.08,0.54c0,0.3-0.04,0.65-0.11,1.05
	c-0.07,0.39-0.18,0.79-0.32,1.2c-0.14,0.41-0.3,0.79-0.48,1.15c-0.25,0.49-0.56,0.88-0.91,1.18s-0.68,0.45-0.98,0.45
	c-0.22,0-0.41-0.09-0.58-0.27c-0.17-0.18-0.3-0.44-0.39-0.78c-0.09-0.34-0.14-0.74-0.14-1.2c0-0.62,0.11-1.23,0.34-1.85
	c0.22-0.62,0.51-1.18,0.85-1.68c0.34-0.5,0.69-0.9,1.04-1.21c0.35-0.3,0.63-0.45,0.85-0.45c0.18,0,0.31,0.08,0.41,0.25
	s0.18,0.43,0.27,0.79c-0.23,0.01-0.44,0.05-0.61,0.13S10.75,9.17,10.57,9.32z M9.62,10.46c-0.18,0.28-0.35,0.65-0.53,1.09
	s-0.32,0.88-0.43,1.31s-0.17,0.76-0.17,0.98c0,0.56,0.17,0.84,0.52,0.84c0.24,0,0.56-0.25,0.94-0.74c0.38-0.49,0.72-1.09,1-1.78
	c0.28-0.69,0.43-1.32,0.43-1.89c0-0.42-0.11-0.63-0.33-0.63c-0.17,0-0.38,0.1-0.62,0.3c-0.25,0.2-0.48,0.49-0.71,0.86
	c-0.08,0.14-0.24,0.47-0.48,0.99C9.29,11.45,9.41,11,9.62,10.46z"/>
<path d="M12.98,9.32c0.07-0.03,0.14-0.05,0.21-0.08c0.07-0.03,0.14-0.05,0.21-0.07c0.07-0.02,0.14-0.03,0.21-0.03
	c0.15,0,0.27,0.05,0.37,0.15s0.18,0.23,0.23,0.4c0.05,0.17,0.08,0.35,0.08,0.54c0,0.3-0.04,0.65-0.11,1.05
	c-0.07,0.39-0.18,0.79-0.32,1.2c-0.14,0.41-0.3,0.79-0.48,1.15c-0.25,0.49-0.56,0.88-0.91,1.18s-0.68,0.45-0.98,0.45
	c-0.22,0-0.41-0.09-0.58-0.27c-0.17-0.18-0.3-0.44-0.39-0.78c-0.09-0.34-0.14-0.74-0.14-1.2c0-0.62,0.11-1.23,0.34-1.85
	c0.22-0.62,0.51-1.18,0.85-1.68c0.34-0.5,0.69-0.9,1.04-1.21c0.35-0.3,0.63-0.45,0.85-0.45c0.18,0,0.31,0.08,0.41,0.25
	s0.18,0.43,0.27,0.79c-0.23,0.01-0.44,0.05-0.61,0.13S13.16,9.17,12.98,9.32z M12.03,10.46c-0.18,0.28-0.35,0.65-0.53,1.09
	s-0.32,0.88-0.43,1.31s-0.17,0.76-0.17,0.98c0,0.56,0.17,0.84,0.52,0.84c0.24,0,0.56-0.25,0.94-0.74c0.38-0.49,0.72-1.09,1-1.78
	c0.28-0.69,0.43-1.32,0.43-1.89c0-0.42-0.11-0.63-0.33-0.63c-0.17,0-0.38,0.1-0.62,0.3c-0.25,0.2-0.48,0.49-0.71,0.86
	c-0.08,0.14-0.24,0.47-0.48,0.99C11.7,11.45,11.83,11,12.03,10.46z"/>
<path d="M17.05,14.75c-0.03,0-0.07-0.02-0.13-0.07c-0.06-0.05-0.14-0.13-0.26-0.25s-0.24-0.25-0.38-0.39l-2.03-2.05l-0.6,1.19
	c0,0.1-0.01,0.18-0.03,0.23s-0.06,0.12-0.11,0.21c-0.14,0.21-0.25,0.38-0.35,0.49c-0.1,0.11-0.18,0.17-0.26,0.17
	c-0.04,0-0.07-0.02-0.1-0.07c-0.03-0.05-0.04-0.1-0.04-0.17c0-0.09,0.04-0.21,0.11-0.36l1.1-2.05c-0.06-0.15-0.1-0.31-0.1-0.47
	c0-0.17,0.03-0.31,0.09-0.42s0.13-0.21,0.21-0.28c0.08-0.07,0.3-0.25,0.67-0.54c0.52-1.03,0.77-1.6,0.77-1.73
	c0-0.08-0.03-0.12-0.1-0.12c-0.07,0-0.22,0.06-0.45,0.18c-0.23,0.12-0.54,0.31-0.91,0.56s-0.82,0.57-1.34,0.96
	c-0.04,0.03-0.09,0.05-0.14,0.04c-0.05-0.01-0.1-0.04-0.14-0.1s-0.06-0.14-0.06-0.23c0-0.03,0-0.07,0.01-0.11
	c0.01-0.04,0.02-0.11,0.04-0.19s0.04-0.17,0.05-0.23c0.01-0.02,0.02-0.1,0.04-0.24c0.02-0.14,0.05-0.27,0.1-0.38
	c0.04-0.11,0.12-0.24,0.23-0.38s0.27-0.29,0.47-0.44c0.04-0.03,0.07-0.06,0.11-0.06c0.03-0.01,0.05,0,0.05,0.04
	c0,0.01-0.04,0.06-0.11,0.14c-0.07,0.08-0.15,0.21-0.24,0.4c0.73-0.38,1.27-0.65,1.62-0.81c0.35-0.16,0.63-0.23,0.84-0.23
	c0.11,0,0.21,0.12,0.29,0.35c0.08,0.24,0.12,0.39,0.12,0.46c0,0.11-0.03,0.22-0.08,0.36l-0.6,1.35c0.48-0.35,0.85-0.63,1.11-0.84
	c0.26-0.21,0.55-0.44,0.86-0.68s0.51-0.4,0.59-0.46c0.08-0.06,0.14-0.09,0.16-0.09c0.06,0,0.09,0.04,0.09,0.12
	c0,0.04-0.04,0.17-0.13,0.37s-0.18,0.38-0.29,0.54c-0.1,0.16-0.19,0.24-0.26,0.24c-0.02,0-0.04-0.01-0.06-0.02
	c-0.03-0.01-0.05-0.03-0.07-0.04c-0.34,0.26-0.75,0.57-1.24,0.94s-0.88,0.64-1.16,0.85l-0.32,0.73l1.91,1.94
	c0.18,0.18,0.3,0.32,0.38,0.42s0.14,0.22,0.18,0.34c0.04,0.12,0.06,0.28,0.06,0.47C17.18,14.59,17.14,14.75,17.05,14.75z"/>
<path d="M20.48,12.47c-0.06-0.17-0.16-0.33-0.28-0.47c-0.13-0.14-0.27-0.25-0.42-0.33c-0.16-0.08-0.32-0.15-0.49-0.19
	c-0.51-0.11-0.98-0.36-1.42-0.74c-0.04-0.03-0.08-0.09-0.12-0.19c-0.04-0.1-0.06-0.19-0.06-0.28c0-0.33,0.04-0.66,0.11-1
	c0.07-0.33,0.17-0.59,0.28-0.78c0.19-0.31,0.52-0.58,1-0.82c0.48-0.23,1.02-0.35,1.63-0.35c0.36,0,0.64,0.04,0.84,0.12
	c0.2,0.08,0.29,0.21,0.29,0.38c0,0.28-0.03,0.5-0.08,0.65c-0.05,0.15-0.11,0.26-0.16,0.31C21.54,8.84,21.44,8.91,21.29,9
	C21.13,9.08,21,9.17,20.88,9.26c-0.12,0.09-0.22,0.18-0.3,0.26c-0.08,0.08-0.13,0.12-0.15,0.12c-0.03,0-0.04-0.02-0.04-0.04
	c0-0.06,0.04-0.16,0.13-0.29c0.09-0.13,0.2-0.24,0.33-0.34c0.14-0.11,0.21-0.18,0.21-0.21c0-0.05-0.08-0.07-0.23-0.07
	c-0.46,0-0.89,0.06-1.29,0.19c-0.39,0.12-0.7,0.29-0.93,0.49c-0.23,0.2-0.34,0.41-0.34,0.62c0,0.13,0.05,0.22,0.14,0.28
	c0.09,0.05,0.3,0.15,0.62,0.27c0.32,0.13,0.61,0.27,0.86,0.44c0.36,0.23,0.63,0.48,0.81,0.73s0.26,0.53,0.26,0.85
	c0,0.21-0.03,0.43-0.1,0.65c-0.07,0.22-0.17,0.41-0.3,0.59c-0.13,0.18-0.29,0.33-0.46,0.45c-0.15,0.09-0.33,0.18-0.56,0.26
	s-0.47,0.15-0.73,0.19s-0.51,0.07-0.75,0.07c-0.44,0-0.79-0.06-1.06-0.19c-0.27-0.12-0.4-0.31-0.4-0.56c0-0.11,0.04-0.29,0.14-0.53
	s0.2-0.4,0.32-0.48c0.11-0.06,0.21-0.1,0.31-0.11c0.1-0.01,0.15,0.01,0.15,0.05c0,0.01,0,0.02-0.01,0.03
	c-0.01,0.01-0.02,0.02-0.03,0.03c-0.01,0.01-0.02,0.01-0.03,0.02c-0.05,0.03-0.09,0.05-0.12,0.07c-0.03,0.02-0.06,0.03-0.08,0.05
	c-0.02,0.02-0.03,0.04-0.03,0.07c0,0.08,0.26,0.12,0.78,0.12c0.45,0,0.82-0.02,1.11-0.07s0.54-0.14,0.76-0.27
	C20.1,12.87,20.3,12.7,20.48,12.47z"/>
<path class="st1" d="M28.07,12.38c-0.13-0.35-0.34-0.66-0.6-0.95c-0.27-0.28-0.57-0.5-0.91-0.68c-0.34-0.17-0.69-0.3-1.06-0.38
	c-1.09-0.23-2.1-0.72-3.05-1.49c-0.08-0.06-0.17-0.19-0.26-0.39c-0.09-0.2-0.14-0.39-0.14-0.57c0-0.67,0.08-1.34,0.24-2.01
	c0.16-0.67,0.36-1.2,0.61-1.58c0.4-0.63,1.12-1.18,2.15-1.65C26.1,2.23,27.27,2,28.57,2c0.77,0,1.38,0.08,1.8,0.25
	C30.79,2.42,31,2.67,31,3.02c0,0.57-0.05,1.01-0.17,1.32c-0.11,0.31-0.23,0.52-0.35,0.62c-0.13,0.1-0.35,0.24-0.67,0.42
	c-0.34,0.17-0.63,0.34-0.88,0.52c-0.25,0.18-0.46,0.36-0.64,0.52C28.11,6.59,28,6.67,27.95,6.67c-0.05,0-0.08-0.03-0.08-0.09
	c0-0.13,0.09-0.32,0.29-0.59c0.19-0.26,0.43-0.49,0.71-0.69c0.3-0.22,0.45-0.36,0.45-0.42c0-0.1-0.16-0.15-0.49-0.15
	c-1,0-1.92,0.13-2.76,0.38c-0.85,0.25-1.51,0.58-2,0.99s-0.73,0.83-0.73,1.25c0,0.26,0.1,0.45,0.3,0.56
	c0.2,0.11,0.65,0.29,1.34,0.55c0.69,0.26,1.31,0.55,1.85,0.89c0.78,0.47,1.36,0.96,1.74,1.47c0.38,0.51,0.56,1.08,0.56,1.71
	c0,0.43-0.07,0.86-0.22,1.3c-0.15,0.44-0.37,0.84-0.65,1.2c-0.29,0.36-0.62,0.66-0.99,0.9c-0.32,0.19-0.72,0.37-1.2,0.53
	c-0.48,0.17-1,0.3-1.57,0.39c-0.56,0.09-1.1,0.14-1.61,0.14c-0.94,0-1.7-0.12-2.27-0.37c-0.57-0.25-0.86-0.63-0.86-1.14
	c0-0.23,0.1-0.58,0.29-1.06c0.2-0.48,0.42-0.81,0.69-0.97c0.23-0.13,0.45-0.2,0.67-0.22c0.21-0.02,0.32,0.02,0.32,0.11
	c0,0.02-0.01,0.05-0.03,0.07c-0.01,0.02-0.03,0.04-0.06,0.06c-0.02,0.02-0.04,0.03-0.06,0.05c-0.11,0.06-0.2,0.11-0.26,0.14
	c-0.07,0.04-0.12,0.07-0.16,0.1c-0.04,0.04-0.06,0.08-0.06,0.14c0,0.16,0.56,0.24,1.67,0.24c0.97,0,1.76-0.05,2.38-0.15
	c0.62-0.1,1.17-0.28,1.64-0.54C27.26,13.19,27.69,12.84,28.07,12.38z"/>
<path class="st1" d="M30.43,10.15l-0.81,0.64c-0.13,0.09-0.21,0.14-0.25,0.14c-0.08,0-0.13-0.04-0.17-0.11s-0.05-0.19-0.05-0.34
	c0-0.18,0.03-0.38,0.08-0.61c0.05-0.23,0.11-0.4,0.17-0.51c0.07-0.11,0.23-0.27,0.48-0.47s0.55-0.4,0.9-0.59
	c0.35-0.2,0.72-0.36,1.1-0.5c0.38-0.13,0.73-0.2,1.04-0.2c0.22,0,0.38,0.05,0.49,0.16c0.11,0.11,0.16,0.38,0.16,0.83
	c0,0.24-0.06,0.52-0.17,0.81s-0.25,0.59-0.4,0.87c-0.16,0.28-0.45,0.78-0.87,1.5c0.23-0.05,0.39-0.09,0.5-0.1
	c0.11-0.02,0.3-0.05,0.59-0.1c0.33-0.72,0.6-1.3,0.81-1.73c0.21-0.43,0.38-0.79,0.52-1.07s0.23-0.45,0.26-0.49
	c0.05-0.09,0.09-0.12,0.13-0.1c0.03,0.02,0.05,0.1,0.05,0.23c0,0.15-0.01,0.28-0.03,0.38S34.88,9,34.83,9.1
	c-0.04,0.1-0.07,0.15-0.07,0.16c-0.07,0.16-0.16,0.37-0.28,0.63s-0.24,0.52-0.36,0.77c-0.12,0.26-0.25,0.56-0.4,0.91
	c0.28,0.02,0.56,0.07,0.83,0.16l-0.68,1.38c-0.19-0.04-0.43-0.06-0.74-0.06c-0.08,0.23-0.13,0.4-0.17,0.53s-0.08,0.25-0.11,0.36
	c-0.03,0.12-0.04,0.22-0.04,0.32c0,0.06,0.01,0.14,0.04,0.24c0.02,0.1,0.04,0.16,0.04,0.17c0,0.08-0.04,0.16-0.11,0.24
	c-0.07,0.08-0.16,0.16-0.26,0.22c-0.1,0.06-0.18,0.1-0.23,0.1c-0.09,0-0.14-0.11-0.14-0.32c0-0.44,0.15-1.04,0.45-1.82
	c-0.4,0.05-0.85,0.14-1.36,0.26c-0.15,0.29-0.28,0.57-0.4,0.83c-0.12,0.26-0.22,0.49-0.29,0.67c-0.08,0.18-0.13,0.3-0.17,0.36
	s-0.08,0.09-0.12,0.09c-0.07,0-0.13-0.05-0.18-0.14c-0.02-0.04-0.04-0.08-0.04-0.11C30,15.02,30,14.98,30,14.94
	c0-0.05,0-0.08,0-0.12c0-0.04,0.02-0.11,0.05-0.2c0.03-0.09,0.11-0.26,0.23-0.52s0.21-0.45,0.27-0.58
	c-0.07,0.01-0.15,0.02-0.25,0.02c-0.13,0-0.24-0.04-0.32-0.11c-0.08-0.07-0.12-0.16-0.12-0.26c0-0.12,0.02-0.25,0.06-0.39
	c0.04-0.14,0.1-0.25,0.17-0.34c0.07-0.09,0.13-0.14,0.2-0.14c0.04,0,0.1,0.02,0.16,0.06L31.42,12c0.54-0.88,0.94-1.57,1.21-2.09
	s0.4-0.84,0.4-0.99c0-0.08-0.02-0.15-0.04-0.21c-0.03-0.05-0.07-0.1-0.13-0.13c-0.05-0.03-0.12-0.04-0.19-0.04
	c-0.08,0-0.21,0.03-0.39,0.1c-0.18,0.07-0.39,0.17-0.64,0.3c-0.25,0.13-0.56,0.31-0.93,0.55c-0.28,0.17-0.41,0.28-0.41,0.32
	c0,0.05,0.02,0.09,0.06,0.1c0.04,0.02,0.09,0.03,0.14,0.03c0.06,0.01,0.09,0.02,0.09,0.04c0,0.02-0.01,0.04-0.04,0.06
	C30.52,10.08,30.48,10.11,30.43,10.15z"/>
<path class="st1" d="M37.51,9.32c0.07-0.03,0.14-0.05,0.2-0.08c0.07-0.03,0.14-0.05,0.21-0.07c0.07-0.02,0.14-0.03,0.21-0.03
	c0.15,0,0.27,0.05,0.37,0.15c0.1,0.1,0.18,0.23,0.23,0.4c0.05,0.17,0.08,0.35,0.08,0.54c0,0.3-0.04,0.65-0.11,1.05
	c-0.07,0.39-0.18,0.79-0.32,1.2c-0.14,0.41-0.3,0.79-0.48,1.15c-0.25,0.49-0.56,0.88-0.91,1.18s-0.68,0.45-0.97,0.45
	c-0.22,0-0.41-0.09-0.58-0.27c-0.17-0.18-0.3-0.44-0.39-0.78s-0.14-0.74-0.14-1.2c0-0.62,0.11-1.23,0.34-1.85
	c0.22-0.62,0.51-1.18,0.85-1.68s0.69-0.9,1.04-1.21c0.35-0.3,0.63-0.45,0.85-0.45c0.18,0,0.31,0.08,0.41,0.25
	c0.09,0.16,0.18,0.43,0.27,0.79c-0.23,0.01-0.44,0.05-0.61,0.13S37.7,9.17,37.51,9.32z M36.56,10.46c-0.18,0.28-0.35,0.65-0.53,1.09
	c-0.18,0.45-0.32,0.88-0.43,1.31s-0.17,0.76-0.17,0.98c0,0.56,0.17,0.84,0.52,0.84c0.24,0,0.56-0.25,0.94-0.74
	c0.38-0.49,0.72-1.09,1-1.78s0.43-1.32,0.43-1.89c0-0.42-0.11-0.63-0.33-0.63c-0.17,0-0.38,0.1-0.62,0.3
	c-0.25,0.2-0.48,0.49-0.71,0.86c-0.08,0.14-0.24,0.47-0.48,0.99C36.23,11.45,36.36,11,36.56,10.46z"/>
<path class="st1" d="M40.59,10.75l1.15-2.57c-0.26,0.02-0.54,0.07-0.82,0.17s-0.53,0.2-0.74,0.31c-0.21,0.11-0.39,0.22-0.55,0.32
	c-0.16,0.1-0.28,0.17-0.35,0.21c-0.02,0-0.04-0.01-0.05-0.03C39.21,9.15,39.2,9.13,39.2,9.1c0-0.03,0.06-0.21,0.17-0.55
	c0.12-0.34,0.25-0.7,0.41-1.09c0.88-0.47,1.65-0.7,2.32-0.7c0.78,0,1.32,0.25,1.62,0.74c0.11,0.17,0.19,0.39,0.25,0.64
	c0.06,0.25,0.09,0.5,0.09,0.75c0,0.56-0.08,1.08-0.24,1.54c-0.16,0.46-0.38,0.86-0.67,1.2c-0.29,0.34-0.63,0.6-1.03,0.77
	c-0.39,0.18-0.82,0.27-1.29,0.27c-0.08,0-0.25-0.02-0.51-0.07l-0.34,0.92c0.04,0.08,0.05,0.14,0.05,0.19c0,0.12-0.02,0.21-0.05,0.29
	c-0.05,0.11-0.12,0.26-0.2,0.45c-0.08,0.18-0.14,0.31-0.17,0.37c-0.03,0.06-0.06,0.11-0.1,0.16c-0.04,0.04-0.07,0.07-0.11,0.07
	c-0.07,0-0.12-0.03-0.14-0.1c-0.02-0.07-0.03-0.16-0.03-0.27c0-0.17,0.05-0.43,0.16-0.79c0.11-0.36,0.27-0.84,0.49-1.43
	c-0.12-0.07-0.21-0.16-0.27-0.26c-0.07-0.11-0.1-0.22-0.1-0.32c0-0.23,0.09-0.45,0.27-0.65S40.24,10.87,40.59,10.75z M40.98,10.9
	l-0.21,0.54c0.1,0.01,0.18,0.01,0.25,0.02s0.14,0.01,0.19,0.01c0.44,0,0.82-0.09,1.14-0.27c0.32-0.18,0.58-0.4,0.77-0.66
	c0.19-0.26,0.33-0.52,0.41-0.79c0.08-0.26,0.13-0.48,0.13-0.66c0-0.24-0.06-0.44-0.2-0.58C43.33,8.4,43.14,8.3,42.9,8.25
	s-0.56-0.08-0.95-0.08c0,0.04,0.01,0.09,0.01,0.15c0,0.2-0.07,0.45-0.21,0.77l-0.65,1.54l0.49-0.08c0.04,0,0.06,0.03,0.06,0.08
	c0,0.05-0.03,0.08-0.1,0.1L40.98,10.9z"/>
<g>
	<rect x="20" y="19" class="st2" width="24" height="3"/>
</g>
<text transform="matrix(2.3 0 0 1 21.9404 21.1484)" class="st3 st4 st5">edubusiness</text>
</svg>
